<svg xmlns="http://www.w3.org/2000/svg" version="1.1" xmlns:xlink="http://www.w3.org/1999/xlink" width="2000" height="1500" viewBox="0 0 2000 1500"><rect width="2000" height="1500" x="0" y="0" id="background" stroke="transparent" fill="#ffffff"></rect><svg xml:space="preserve" width="1500" height="1125" data-version="2" data-id="lg_NTpNhETWL3bjnfkv5a" viewBox="0 0 722 195" x="250" y="187.5"><rect width="100%" height="100%" fill="transparent"></rect><path fill="#2a160c" d="M80.31 81.855H54.69v-2.25h8.12l-8.75-24.13h-27.5l-8.75 24.13h8.13v2.25H7.06v-2.25h4.63q1.75 0 2.37-1.75l27.5-74.75h4.25l27.5 74.75q.63 1.75 2.38 1.75h4.62Zm-39.87-64-12.5 34.12h24.87Z"></path><rect width="73.25" height="78.75" x="-36.63" y="-39.38" fill="none" rx="0" ry="0" transform="translate(44.19 42.98)"></rect><path fill="#2a160c" d="M83.44 5.355v-2.25h31.75q15.87 0 25.87 10.5 10 10.5 10 28.87 0 18.38-10 28.88t-25.87 10.5H83.44v-2.25h5.87q1.75 0 1.75-1.5V6.855q0-1.5-1.75-1.5Zm31.75 1.25h-13.88v71.75h13.88q10.75 0 18-9.63 7.25-9.62 7.25-26.25 0-16.62-7.25-26.25-7.25-9.62-18-9.62"></path><rect width="67.62" height="78.75" x="-33.81" y="-39.38" fill="none" rx="0" ry="0" transform="translate(117.75 42.98)"></rect><path fill="#2a160c" d="M167.44 77.855v-71q0-1.5-1.75-1.5h-5.88v-2.25h25.5v2.25h-5.87q-1.75 0-1.75 1.5v71q0 1.75 1.75 1.75h5.87v2.25h-25.5v-2.25h5.88q1.75 0 1.75-1.75"></path><rect width="25.5" height="78.75" x="-12.75" y="-39.38" fill="none" rx="0" ry="0" transform="translate(173.06 42.98)"></rect><path fill="#2a160c" d="M226.06 6.605v71.5q0 1.5 1.75 1.5h10.88v2.25h-35.5v-2.25h10.87q1.75 0 1.75-1.5v-71.5h-16.12q-3.25 0-3.5 2.75l-1.88 14.62h-2.87v-5.87q0-11-1.13-16.13 4 1.13 13.88 1.13h33.5q9.87 0 13.87-1.13-1.12 5.13-1.12 16.13v5.87h-2.88l-1.87-14.62q-.25-2.75-3.5-2.75Z"></path><rect width="61.25" height="79.88" x="-30.63" y="-39.94" fill="none" rx="0" ry="0" transform="translate(221.44 42.41)"></rect><path fill="#2a160c" d="M300.44 3.105h17v2.25h-4.63q-1.75 0-2.37 1.75l-19.13 46.12v24.63q0 1.75 1.75 1.75h9v2.25h-31.75v-2.25h9q1.75 0 1.75-1.75v-24.75l-21.25-46q-.87-1.75-2.37-1.75h-4.63v-2.25h23.88v2.25h-6.25l19.12 41.5 17.13-41.5h-6.25Z"></path><rect width="64.63" height="78.75" x="-32.31" y="-39.38" fill="none" rx="0" ry="0" transform="translate(285.63 42.98)"></rect><path fill="#2a160c" d="M380.06 81.855h-25.62v-2.25h8.12l-8.75-24.13h-27.5l-8.75 24.13h8.13v2.25h-18.88v-2.25h4.63q1.75 0 2.37-1.75l27.5-74.75h4.25l27.5 74.75q.63 1.75 2.38 1.75h4.62Zm-39.87-64-12.5 34.12h24.87Z"></path><rect width="73.25" height="78.75" x="-36.63" y="-39.38" fill="none" rx="0" ry="0" transform="translate(343.94 42.98)"></rect><path fill="#2a160c" d="M414.44 5.355v-2.25h30.5q10.62 0 17.94 6.44 7.31 6.43 7.31 17.31 0 10.87-7.31 17.31-7.32 6.44-17.94 6.44h-12.63v27.25q0 1.75 1.75 1.75h8.38v2.25h-28v-2.25h5.87q1.75 0 1.75-1.75v-71q0-1.5-1.75-1.5Zm29.87 1.25h-12v40.5h12q7.38 0 11.63-6.06 4.25-6.07 4.25-14.19 0-8.13-4.25-14.19-4.25-6.06-11.63-6.06"></path><rect width="55.75" height="78.75" x="-27.88" y="-39.38" fill="none" rx="0" ry="0" transform="translate(442.81 42.98)"></rect><path fill="#2a160c" d="M534.69 81.855h-25.63v-2.25h8.13l-8.75-24.13h-27.5l-8.75 24.13h8.12v2.25h-18.87v-2.25h4.62q1.75 0 2.38-1.75l27.5-74.75h4.25l27.5 74.75q.62 1.75 2.37 1.75h4.63Zm-39.88-64-12.5 34.12h24.88Z"></path><rect width="73.25" height="78.75" x="-36.63" y="-39.38" fill="none" rx="0" ry="0" transform="translate(498.56 42.98)"></rect><path fill="#2a160c" d="M566.69 6.605v71.5q0 1.5 1.75 1.5h10.87v2.25h-35.5v-2.25h10.88q1.75 0 1.75-1.5v-71.5h-16.13q-3.25 0-3.5 2.75l-1.87 14.62h-2.88v-5.87q0-11-1.12-16.13 4 1.13 13.87 1.13h33.5q9.88 0 13.88-1.13-1.13 5.13-1.13 16.13v5.87h-2.87l-1.88-14.62q-.25-2.75-3.5-2.75Z"></path><rect width="61.25" height="79.88" x="-30.63" y="-39.94" fill="none" rx="0" ry="0" transform="translate(562.07 42.41)"></rect><path fill="#2a160c" d="M597.19 81.855v-2.25h5.87q1.75 0 1.75-1.75v-71q0-1.5-1.75-1.5h-5.87v-2.25h39.62q9.88 0 13.88-1.13-1.13 5.13-1.13 14.25v5.88h-2.87l-1.88-12.75q-.25-2.75-3.5-2.75h-26.25v34.12h25.13q1.5 0 1.75-1.75l.62-7.75h2.25v22.5h-2.25l-.62-7.75q-.25-1.75-1.75-1.75h-25.13v34.13h28q3.25 0 3.5-2.75l1.88-14.63h2.87v5.88q0 11 1.13 16.12-4-1.12-13.88-1.12Z"></path><rect width="55.25" height="81" x="-27.63" y="-40.5" fill="none" rx="0" ry="0" transform="translate(625.32 42.98)"></rect><path fill="#2a160c" d="M661.81 81.855v-2.25h5.88q1.75 0 1.75-1.75v-71q0-1.5-1.75-1.5h-5.88v-2.25h25.5v2.25h-5.87q-1.75 0-1.75 1.5v71.5h24.87q3.25 0 3.5-2.75l1.88-14.63h2.87v5.88q0 11 1.13 16.12-4-1.12-13.88-1.12Z"></path><rect width="52.13" height="79.87" x="-26.07" y="-39.94" fill="none" rx="0" ry="0" transform="translate(688.38 43.54)"></rect><path fill="#2a160c" d="M277.44 142.665v18.72h-2.86l-6.08-15.81v15.81h-2v-18.72h2.93l6.06 15.58v-15.58Z"></path><rect width="10.94" height="18.72" x="-5.47" y="-9.36" fill="none" rx="0" ry="0" transform="translate(272.47 152.53)"></rect><path fill="#2a160c" d="M290.44 152.725h-6.11v6.89h6.89v1.77h-9.1v-18.72h9.1v1.77h-6.89v6.58h6.11Z"></path><rect width="9.1" height="18.72" x="-4.55" y="-9.36" fill="none" rx="0" ry="0" transform="translate(287.17 152.53)"></rect><path fill="#2a160c" d="m311.87 142.665-3.12 18.72h-2.66l-3.3-13.93-3.4 13.93h-2.84l-3.12-18.72h2.26l2.47 16.41 3.31-13.99h2.83l3.09 13.94 2.45-16.36Z"></path><rect width="18.44" height="18.72" x="-9.22" y="-9.36" fill="none" rx="0" ry="0" transform="translate(303.15 152.53)"></rect><path fill="#2a160c" d="m333.37 142.665-5.25 11.23v7.49h-2.19v-7.49l-5.35-11.23h2.41l4.09 8.95 4.13-8.95Z"></path><rect width="12.79" height="18.72" x="-6.39" y="-9.36" fill="none" rx="0" ry="0" transform="translate(327.48 152.53)"></rect><path fill="#2a160c" d="M334.41 152.025q0-2.73.57-4.59.57-1.86 1.51-3 .93-1.14 2.14-1.65t2.51-.51q1.3 0 2.51.51 1.21.51 2.15 1.65.93 1.14 1.5 3 .58 1.86.58 4.59 0 2.73-.58 4.59-.57 1.86-1.5 3-.94 1.15-2.16 1.66-1.22.5-2.5.5-1.3 0-2.51-.5-1.21-.51-2.14-1.66-.94-1.14-1.51-3-.57-1.86-.57-4.59m2.26 0q0 3.95 1.12 6.01 1.12 2.05 3.35 2.05 2.24 0 3.36-2.05 1.11-2.06 1.11-6.01 0-3.95-1.11-6-1.12-2.06-3.36-2.06-2.23 0-3.35 2.06-1.12 2.05-1.12 6"></path><rect width="13.47" height="19.5" x="-6.74" y="-9.75" fill="none" rx="0" ry="0" transform="translate(341.64 152.53)"></rect><path fill="#2a160c" d="m361.16 161.385-4.18-7.33h-2.73v7.33h-2.21v-18.72h3.9q3.04 0 4.75 1.39 1.72 1.39 1.72 4.38 0 1.07-.26 1.89-.26.82-.7 1.44-.44.63-1.04 1.07-.6.44-1.28.73l4.66 7.82Zm-6.91-17.03v8.01h1.74q2.03 0 3.09-.97 1.07-.98 1.07-2.96 0-1.97-.96-3.02-.97-1.06-3.28-1.06Z"></path><rect width="11.75" height="18.72" x="-5.88" y="-9.36" fill="none" rx="0" ry="0" transform="translate(358.42 152.53)"></rect><path fill="#2a160c" d="m375.2 161.385-6.47-8.71v8.71h-2.21v-18.72h2.21v8.17l5.87-8.17h2.47l-6.52 8.92 7.36 9.8Z"></path><rect width="11.39" height="18.72" x="-5.7" y="-9.36" fill="none" rx="0" ry="0" transform="translate(372.71 152.53)"></rect><path fill="#2a160c" d="M399.9 158.295q-.73 1.56-2 2.52t-3.35.96q-1.04 0-2.2-.4-1.16-.4-2.15-1.5-.98-1.09-1.63-2.99-.65-1.89-.65-4.86 0-2.91.62-4.81.62-1.9 1.6-2.99.97-1.09 2.14-1.52 1.17-.43 2.29-.43 1.02 0 1.83.26.82.26 1.45.69.62.43 1.08 1 .45.57.74 1.2l-1.95.75q-.42-1.06-1.16-1.61t-1.99-.55q-.88 0-1.68.38-.79.38-1.39 1.3-.59.92-.95 2.46-.35 1.53-.35 3.87 0 2.32.37 3.85.36 1.53.97 2.44.61.91 1.41 1.3.79.39 1.65.39 1.43 0 2.18-.71.76-.72 1.22-1.81Z"></path><rect width="11.98" height="19.5" x="-5.99" y="-9.75" fill="none" rx="0" ry="0" transform="translate(394.41 152.53)"></rect><path fill="#2a160c" d="M405.78 142.665v18.72h-2.21v-18.72Z"></path><rect width="2.21" height="18.72" x="-1.1" y="-9.36" fill="none" rx="0" ry="0" transform="translate(405.18 152.53)"></rect><path fill="#2a160c" d="M419.95 144.595h-4.58v16.79h-2.21v-16.79h-4.52v-1.93h11.31Z"></path><rect width="11.31" height="18.72" x="-5.66" y="-9.36" fill="none" rx="0" ry="0" transform="translate(414.8 152.53)"></rect><path fill="#2a160c" d="m433.52 142.665-5.25 11.23v7.49h-2.19v-7.49l-5.35-11.23h2.42l4.08 8.95 4.13-8.95Z"></path><rect width="12.79" height="18.72" x="-6.39" y="-9.36" fill="none" rx="0" ry="0" transform="translate(427.63 152.53)"></rect><path fill="#2a160c" d="M434.17 165.335h-1.46l.68-3.95v-2.6h2.6v2.58Z"></path><rect width="3.28" height="6.55" x="-1.64" y="-3.27" fill="none" rx="0" ry="0" transform="translate(434.85 162.56)"></rect><path fill="#2a160c" d="M327.67 177.335q.65-1.9 2-2.96 1.36-1.07 3.41-1.07 1.01 0 1.91.28.9.27 1.57.84.68.57 1.07 1.47t.39 2.14q0 .81-.18 1.56-.18.76-.59 1.55-.4.79-1.06 1.69-.67.9-1.6 1.99l-4.37 5.1h7.57v1.84h-9.88v-2.05l5.35-6.37q.7-.86 1.21-1.54.51-.67.82-1.28.31-.61.46-1.2.14-.58.14-1.29 0-1.4-.68-2.23-.67-.83-2.23-.83-1.25 0-2.11.75-.86.75-1.22 2.16Z"></path><rect width="10.35" height="18.46" x="-5.17" y="-9.23" fill="none" rx="0" ry="0" transform="translate(333.35 183.03)"></rect><path fill="#2a160c" d="M343.45 182.825q0 2.13.24 3.59.23 1.45.67 2.34.45.88 1.07 1.26.62.37 1.4.37.78 0 1.41-.37.62-.38 1.06-1.26.45-.89.68-2.34.23-1.46.23-3.59t-.23-3.59q-.23-1.46-.68-2.35-.44-.9-1.06-1.29-.63-.39-1.41-.39-.78 0-1.4.39-.62.39-1.07 1.29-.44.89-.67 2.35-.24 1.46-.24 3.59m8.9 0q0 2.52-.39 4.28-.39 1.75-1.11 2.84-.71 1.09-1.74 1.59-1.03.49-2.28.49-1.24 0-2.27-.45-1.03-.46-1.74-1.52-.72-1.07-1.11-2.84-.39-1.77-.39-4.39 0-2.52.39-4.29t1.11-2.87q.71-1.11 1.74-1.6 1.03-.5 2.27-.5 1.25 0 2.28.47 1.03.47 1.74 1.55.72 1.08 1.11 2.84.39 1.77.39 4.4"></path><rect width="11.03" height="18.46" x="-5.51" y="-9.23" fill="none" rx="0" ry="0" transform="translate(347.33 183.3)"></rect><path fill="#2a160c" d="M355.75 177.335q.65-1.9 2-2.96 1.36-1.07 3.41-1.07 1.01 0 1.91.28.9.27 1.57.84.68.57 1.07 1.47t.39 2.14q0 .81-.18 1.56-.18.76-.59 1.55-.4.79-1.06 1.69-.67.9-1.6 1.99l-4.37 5.1h7.57v1.84h-9.88v-2.05l5.35-6.37q.7-.86 1.21-1.54.51-.67.82-1.28.31-.61.46-1.2.14-.58.14-1.29 0-1.4-.68-2.23-.67-.83-2.23-.83-1.25 0-2.11.75-.86.75-1.22 2.16Z"></path><rect width="10.35" height="18.46" x="-5.17" y="-9.23" fill="none" rx="0" ry="0" transform="translate(361.43 183.03)"></rect><path fill="#2a160c" d="M371.64 188.435q.31.78 1.04 1.36.73.57 1.87.57.49 0 1.09-.2.6-.19 1.11-.7.5-.51.84-1.39.34-.88.34-2.29 0-1.17-.23-1.97-.24-.81-.65-1.29-.42-.48-.98-.7-.56-.22-1.21-.22-.62 0-1.32.26-.71.26-1.41.98l-1.71-.18.49-9.1h8.16v1.67h-6.29l-.31 5.79q.6-.41 1.34-.68.74-.28 1.6-.28.93 0 1.78.28.84.27 1.49.93t1.03 1.78q.38 1.12.38 2.84 0 1.35-.4 2.47-.41 1.11-1.14 1.93-.72.82-1.75 1.28-1.03.45-2.28.45-1.82 0-2.97-.78-1.16-.78-1.76-2.03Z"></path><rect width="10.3" height="18.46" x="-5.15" y="-9.23" fill="none" rx="0" ry="0" transform="translate(375.44 183.3)"></rect></svg></svg>